<svg xmlns="http://www.w3.org/2000/svg" version="1.1" xmlns:xlink="http://www.w3.org/1999/xlink" xmlns:svgjs="http://svgjs.com/svgjs" width="1440" height="560" preserveAspectRatio="none" viewBox="0 0 1440 560"><g mask="url(&quot;#SvgjsMask2277&quot;)" fill="none"><rect width="1440" height="560" x="0" y="0" fill="url(#SvgjsLinearGradient2278)"></rect><path d="M-61.79 398.19L-61.79 398.19" stroke="rgba(27, 53, 105, 1)" stroke-width="1.5"></path><path d="M-61.79 398.19L-71.82 501.29" stroke="rgba(27, 53, 105, 1)" stroke-width="1.5"></path><path d="M-61.79 398.19L47.25 359.53" stroke="rgba(27, 53, 105, 1)" stroke-width="1.5"></path><path d="M-71.82 501.29L-71.82 501.29" stroke="rgba(27, 53, 105, 1)" stroke-width="1.5"></path><path d="M-71.82 501.29L70.17 520.11" stroke="rgba(27, 53, 105, 1)" stroke-width="1.5"></path><path d="M-41.88 650.11L-41.88 650.11" stroke="rgba(27, 53, 105, 1)" stroke-width="1.5"></path><path d="M-41.88 650.11L56.37 696.33" stroke="rgba(27, 53, 105, 1)" stroke-width="1.5"></path><path d="M-41.88 650.11L-71.82 501.29" stroke="rgba(27, 53, 105, 1)" stroke-width="1.5"></path><path d="M-41.88 650.11L70.17 520.11" stroke="rgba(27, 53, 105, 1)" stroke-width="1.5"></path><path d="M-41.88 650.11L-61.79 398.19" stroke="rgba(27, 53, 105, 1)" stroke-width="1.5"></path><path d="M-41.88 650.11L47.25 359.53" stroke="rgba(27, 53, 105, 1)" stroke-width="1.5"></path><path d="M47.25 359.53L47.25 359.53" stroke="rgba(27, 53, 105, 1)" stroke-width="1.5"></path><path d="M47.25 359.53L70.17 520.11" stroke="rgba(27, 53, 105, 1)" stroke-width="1.5"></path><path d="M70.17 520.11L70.17 520.11" stroke="rgba(27, 53, 105, 1)" stroke-width="1.5"></path><path d="M56.37 696.33L56.37 696.33" stroke="rgba(27, 53, 105, 1)" stroke-width="1.5"></path><path d="M56.37 696.33L70.17 520.11" stroke="rgba(27, 53, 105, 1)" stroke-width="1.5"></path><path d="M56.37 696.33L260.91 689.26" stroke="rgba(27, 53, 105, 1)" stroke-width="1.5"></path><path d="M230.91 377.08L230.91 377.08" stroke="rgba(27, 53, 105, 1)" stroke-width="1.5"></path><path d="M230.91 377.08L262.28 496.57" stroke="rgba(27, 53, 105, 1)" stroke-width="1.5"></path><path d="M230.91 377.08L363.32 350.73" stroke="rgba(27, 53, 105, 1)" stroke-width="1.5"></path><path d="M230.91 377.08L47.25 359.53" stroke="rgba(27, 53, 105, 1)" stroke-width="1.5"></path><path d="M230.91 377.08L376.95 511.53" stroke="rgba(27, 53, 105, 1)" stroke-width="1.5"></path><path d="M230.91 377.08L70.17 520.11" stroke="rgba(27, 53, 105, 1)" stroke-width="1.5"></path><path d="M230.91 377.08L494.21 386.37" stroke="rgba(27, 53, 105, 1)" stroke-width="1.5"></path><path d="M262.28 496.57L262.28 496.57" stroke="rgba(27, 53, 105, 1)" stroke-width="1.5"></path><path d="M262.28 496.57L376.95 511.53" stroke="rgba(27, 53, 105, 1)" stroke-width="1.5"></path><path d="M262.28 496.57L363.32 350.73" stroke="rgba(27, 53, 105, 1)" stroke-width="1.5"></path><path d="M262.28 496.57L260.91 689.26" stroke="rgba(27, 53, 105, 1)" stroke-width="1.5"></path><path d="M260.91 689.26L260.91 689.26" stroke="rgba(27, 53, 105, 1)" stroke-width="1.5"></path><path d="M260.91 689.26L381.64 692.98" stroke="rgba(27, 53, 105, 1)" stroke-width="1.5"></path><path d="M260.91 689.26L376.95 511.53" stroke="rgba(27, 53, 105, 1)" stroke-width="1.5"></path><path d="M260.91 689.26L509.45 705.99" stroke="rgba(27, 53, 105, 1)" stroke-width="1.5"></path><path d="M363.32 350.73L363.32 350.73" stroke="rgba(27, 53, 105, 1)" stroke-width="1.5"></path><path d="M363.32 350.73L494.21 386.37" stroke="rgba(27, 53, 105, 1)" stroke-width="1.5"></path><path d="M376.95 511.53L376.95 511.53" stroke="rgba(27, 53, 105, 1)" stroke-width="1.5"></path><path d="M376.95 511.53L507.31 526.15" stroke="rgba(27, 53, 105, 1)" stroke-width="1.5"></path><path d="M376.95 511.53L363.32 350.73" stroke="rgba(27, 53, 105, 1)" stroke-width="1.5"></path><path d="M376.95 511.53L494.21 386.37" stroke="rgba(27, 53, 105, 1)" stroke-width="1.5"></path><path d="M376.95 511.53L381.64 692.98" stroke="rgba(27, 53, 105, 1)" stroke-width="1.5"></path><path d="M381.64 692.98L381.64 692.98" stroke="rgba(27, 53, 105, 1)" stroke-width="1.5"></path><path d="M494.21 386.37L494.21 386.37" stroke="rgba(27, 53, 105, 1)" stroke-width="1.5"></path><path d="M494.21 386.37L507.31 526.15" stroke="rgba(27, 53, 105, 1)" stroke-width="1.5"></path><path d="M507.31 526.15L507.31 526.15" stroke="rgba(27, 53, 105, 1)" stroke-width="1.5"></path><path d="M507.31 526.15L509.45 705.99" stroke="rgba(27, 53, 105, 1)" stroke-width="1.5"></path><path d="M507.31 526.15L699.8 556.92" stroke="rgba(27, 53, 105, 1)" stroke-width="1.5"></path><path d="M509.45 705.99L509.45 705.99" stroke="rgba(27, 53, 105, 1)" stroke-width="1.5"></path><path d="M509.45 705.99L381.64 692.98" stroke="rgba(27, 53, 105, 1)" stroke-width="1.5"></path><path d="M509.45 705.99L669.62 637.74" stroke="rgba(27, 53, 105, 1)" stroke-width="1.5"></path><path d="M687.5 253.14L687.5 253.14" stroke="rgba(27, 53, 105, 1)" stroke-width="1.5"></path><path d="M687.5 253.14L668.78 401.21" stroke="rgba(27, 53, 105, 1)" stroke-width="1.5"></path><path d="M687.5 253.14L837.87 87.38" stroke="rgba(27, 53, 105, 1)" stroke-width="1.5"></path><path d="M687.5 253.14L494.21 386.37" stroke="rgba(27, 53, 105, 1)" stroke-width="1.5"></path><path d="M668.78 401.21L668.78 401.21" stroke="rgba(27, 53, 105, 1)" stroke-width="1.5"></path><path d="M668.78 401.21L699.8 556.92" stroke="rgba(27, 53, 105, 1)" stroke-width="1.5"></path><path d="M668.78 401.21L494.21 386.37" stroke="rgba(27, 53, 105, 1)" stroke-width="1.5"></path><path d="M668.78 401.21L800.09 520.42" stroke="rgba(27, 53, 105, 1)" stroke-width="1.5"></path><path d="M699.8 556.92L699.8 556.92" stroke="rgba(27, 53, 105, 1)" stroke-width="1.5"></path><path d="M699.8 556.92L669.62 637.74" stroke="rgba(27, 53, 105, 1)" stroke-width="1.5"></path><path d="M699.8 556.92L800.09 520.42" stroke="rgba(27, 53, 105, 1)" stroke-width="1.5"></path><path d="M699.8 556.92L810.88 655.09" stroke="rgba(27, 53, 105, 1)" stroke-width="1.5"></path><path d="M699.8 556.92L509.45 705.99" stroke="rgba(27, 53, 105, 1)" stroke-width="1.5"></path><path d="M669.62 637.74L669.62 637.74" stroke="rgba(27, 53, 105, 1)" stroke-width="1.5"></path><path d="M669.62 637.74L810.88 655.09" stroke="rgba(27, 53, 105, 1)" stroke-width="1.5"></path><path d="M837.87 87.38L837.87 87.38" stroke="rgba(27, 53, 105, 1)" stroke-width="1.5"></path><path d="M837.87 87.38L973.62 111.59" stroke="rgba(27, 53, 105, 1)" stroke-width="1.5"></path><path d="M837.87 87.38L967.73 190.43" stroke="rgba(27, 53, 105, 1)" stroke-width="1.5"></path><path d="M800.09 520.42L800.09 520.42" stroke="rgba(27, 53, 105, 1)" stroke-width="1.5"></path><path d="M800.09 520.42L810.88 655.09" stroke="rgba(27, 53, 105, 1)" stroke-width="1.5"></path><path d="M810.88 655.09L810.88 655.09" stroke="rgba(27, 53, 105, 1)" stroke-width="1.5"></path><path d="M810.88 655.09L955.95 671.97" stroke="rgba(27, 53, 105, 1)" stroke-width="1.5"></path><path d="M947.55 -50.24L947.55 -50.24" stroke="rgba(27, 53, 105, 1)" stroke-width="1.5"></path><path d="M947.55 -50.24L1090.25 -65.44" stroke="rgba(27, 53, 105, 1)" stroke-width="1.5"></path><path d="M947.55 -50.24L973.62 111.59" stroke="rgba(27, 53, 105, 1)" stroke-width="1.5"></path><path d="M947.55 -50.24L837.87 87.38" stroke="rgba(27, 53, 105, 1)" stroke-width="1.5"></path><path d="M973.62 111.59L973.62 111.59" stroke="rgba(27, 53, 105, 1)" stroke-width="1.5"></path><path d="M973.62 111.59L967.73 190.43" stroke="rgba(27, 53, 105, 1)" stroke-width="1.5"></path><path d="M967.73 190.43L967.73 190.43" stroke="rgba(27, 53, 105, 1)" stroke-width="1.5"></path><path d="M967.73 190.43L1146.42 207.34" stroke="rgba(27, 53, 105, 1)" stroke-width="1.5"></path><path d="M967.73 190.43L1111.61 71.25" stroke="rgba(27, 53, 105, 1)" stroke-width="1.5"></path><path d="M967.73 190.43L967.26 409.94" stroke="rgba(27, 53, 105, 1)" stroke-width="1.5"></path><path d="M967.26 409.94L967.26 409.94" stroke="rgba(27, 53, 105, 1)" stroke-width="1.5"></path><path d="M967.26 409.94L977.17 508.77" stroke="rgba(27, 53, 105, 1)" stroke-width="1.5"></path><path d="M967.26 409.94L1116.73 369.64" stroke="rgba(27, 53, 105, 1)" stroke-width="1.5"></path><path d="M967.26 409.94L1131.82 509.75" stroke="rgba(27, 53, 105, 1)" stroke-width="1.5"></path><path d="M977.17 508.77L977.17 508.77" stroke="rgba(27, 53, 105, 1)" stroke-width="1.5"></path><path d="M977.17 508.77L1131.82 509.75" stroke="rgba(27, 53, 105, 1)" stroke-width="1.5"></path><path d="M977.17 508.77L955.95 671.97" stroke="rgba(27, 53, 105, 1)" stroke-width="1.5"></path><path d="M955.95 671.97L955.95 671.97" stroke="rgba(27, 53, 105, 1)" stroke-width="1.5"></path><path d="M955.95 671.97L1153.03 641.04" stroke="rgba(27, 53, 105, 1)" stroke-width="1.5"></path><path d="M1090.25 -65.44L1090.25 -65.44" stroke="rgba(27, 53, 105, 1)" stroke-width="1.5"></path><path d="M1090.25 -65.44L1111.61 71.25" stroke="rgba(27, 53, 105, 1)" stroke-width="1.5"></path><path d="M1111.61 71.25L1111.61 71.25" stroke="rgba(27, 53, 105, 1)" stroke-width="1.5"></path><path d="M1111.61 71.25L1146.42 207.34" stroke="rgba(27, 53, 105, 1)" stroke-width="1.5"></path><path d="M1111.61 71.25L973.62 111.59" stroke="rgba(27, 53, 105, 1)" stroke-width="1.5"></path><path d="M1111.61 71.25L1246.83 190.92" stroke="rgba(27, 53, 105, 1)" stroke-width="1.5"></path><path d="M1146.42 207.34L1146.42 207.34" stroke="rgba(27, 53, 105, 1)" stroke-width="1.5"></path><path d="M1146.42 207.34L1246.83 190.92" stroke="rgba(27, 53, 105, 1)" stroke-width="1.5"></path><path d="M1116.73 369.64L1116.73 369.64" stroke="rgba(27, 53, 105, 1)" stroke-width="1.5"></path><path d="M1116.73 369.64L1131.82 509.75" stroke="rgba(27, 53, 105, 1)" stroke-width="1.5"></path><path d="M1116.73 369.64L1146.42 207.34" stroke="rgba(27, 53, 105, 1)" stroke-width="1.5"></path><path d="M1131.82 509.75L1131.82 509.75" stroke="rgba(27, 53, 105, 1)" stroke-width="1.5"></path><path d="M1131.82 509.75L1153.03 641.04" stroke="rgba(27, 53, 105, 1)" stroke-width="1.5"></path><path d="M1131.82 509.75L1297.38 512.68" stroke="rgba(27, 53, 105, 1)" stroke-width="1.5"></path><path d="M1153.03 641.04L1153.03 641.04" stroke="rgba(27, 53, 105, 1)" stroke-width="1.5"></path><path d="M1153.03 641.04L1285.26 649.09" stroke="rgba(27, 53, 105, 1)" stroke-width="1.5"></path><path d="M1153.03 641.04L1297.38 512.68" stroke="rgba(27, 53, 105, 1)" stroke-width="1.5"></path><path d="M1305.08 91.52L1305.08 91.52" stroke="rgba(27, 53, 105, 1)" stroke-width="1.5"></path><path d="M1305.08 91.52L1246.83 190.92" stroke="rgba(27, 53, 105, 1)" stroke-width="1.5"></path><path d="M1305.08 91.52L1461.4 92.02" stroke="rgba(27, 53, 105, 1)" stroke-width="1.5"></path><path d="M1305.08 91.52L1441.15 225.12" stroke="rgba(27, 53, 105, 1)" stroke-width="1.5"></path><path d="M1305.08 91.52L1111.61 71.25" stroke="rgba(27, 53, 105, 1)" stroke-width="1.5"></path><path d="M1305.08 91.52L1146.42 207.34" stroke="rgba(27, 53, 105, 1)" stroke-width="1.5"></path><path d="M1246.83 190.92L1246.83 190.92" stroke="rgba(27, 53, 105, 1)" stroke-width="1.5"></path><path d="M1297.38 512.68L1297.38 512.68" stroke="rgba(27, 53, 105, 1)" stroke-width="1.5"></path><path d="M1297.38 512.68L1430.27 532.55" stroke="rgba(27, 53, 105, 1)" stroke-width="1.5"></path><path d="M1297.38 512.68L1285.26 649.09" stroke="rgba(27, 53, 105, 1)" stroke-width="1.5"></path><path d="M1285.26 649.09L1285.26 649.09" stroke="rgba(27, 53, 105, 1)" stroke-width="1.5"></path><path d="M1285.26 649.09L1433.58 683.7" stroke="rgba(27, 53, 105, 1)" stroke-width="1.5"></path><path d="M1285.26 649.09L1430.27 532.55" stroke="rgba(27, 53, 105, 1)" stroke-width="1.5"></path><path d="M1450.78 -68.61L1450.78 -68.61" stroke="rgba(27, 53, 105, 1)" stroke-width="1.5"></path><path d="M1450.78 -68.61L1538.21 -108.55" stroke="rgba(27, 53, 105, 1)" stroke-width="1.5"></path><path d="M1450.78 -68.61L1461.4 92.02" stroke="rgba(27, 53, 105, 1)" stroke-width="1.5"></path><path d="M1450.78 -68.61L1568.47 83.19" stroke="rgba(27, 53, 105, 1)" stroke-width="1.5"></path><path d="M1461.4 92.02L1461.4 92.02" stroke="rgba(27, 53, 105, 1)" stroke-width="1.5"></path><path d="M1461.4 92.02L1568.47 83.19" stroke="rgba(27, 53, 105, 1)" stroke-width="1.5"></path><path d="M1461.4 92.02L1441.15 225.12" stroke="rgba(27, 53, 105, 1)" stroke-width="1.5"></path><path d="M1461.4 92.02L1561.53 227.33" stroke="rgba(27, 53, 105, 1)" stroke-width="1.5"></path><path d="M1441.15 225.12L1441.15 225.12" stroke="rgba(27, 53, 105, 1)" stroke-width="1.5"></path><path d="M1441.15 225.12L1561.53 227.33" stroke="rgba(27, 53, 105, 1)" stroke-width="1.5"></path><path d="M1441.15 225.12L1455.11 389.32" stroke="rgba(27, 53, 105, 1)" stroke-width="1.5"></path><path d="M1441.15 225.12L1574.39 339.85" stroke="rgba(27, 53, 105, 1)" stroke-width="1.5"></path><path d="M1455.11 389.32L1455.11 389.32" stroke="rgba(27, 53, 105, 1)" stroke-width="1.5"></path><path d="M1455.11 389.32L1574.39 339.85" stroke="rgba(27, 53, 105, 1)" stroke-width="1.5"></path><path d="M1455.11 389.32L1430.27 532.55" stroke="rgba(27, 53, 105, 1)" stroke-width="1.5"></path><path d="M1455.11 389.32L1577.63 513.91" stroke="rgba(27, 53, 105, 1)" stroke-width="1.5"></path><path d="M1455.11 389.32L1561.53 227.33" stroke="rgba(27, 53, 105, 1)" stroke-width="1.5"></path><path d="M1455.11 389.32L1297.38 512.68" stroke="rgba(27, 53, 105, 1)" stroke-width="1.5"></path><path d="M1430.27 532.55L1430.27 532.55" stroke="rgba(27, 53, 105, 1)" stroke-width="1.5"></path><path d="M1430.27 532.55L1577.63 513.91" stroke="rgba(27, 53, 105, 1)" stroke-width="1.5"></path><path d="M1433.58 683.7L1433.58 683.7" stroke="rgba(27, 53, 105, 1)" stroke-width="1.5"></path><path d="M1433.58 683.7L1575.33 650.89" stroke="rgba(27, 53, 105, 1)" stroke-width="1.5"></path><path d="M1433.58 683.7L1430.27 532.55" stroke="rgba(27, 53, 105, 1)" stroke-width="1.5"></path><path d="M1538.21 -108.55L1538.21 -108.55" stroke="rgba(27, 53, 105, 1)" stroke-width="1.5"></path><path d="M1538.21 -108.55L1568.47 83.19" stroke="rgba(27, 53, 105, 1)" stroke-width="1.5"></path><path d="M1538.21 -108.55L1461.4 92.02" stroke="rgba(27, 53, 105, 1)" stroke-width="1.5"></path><path d="M1568.47 83.19L1568.47 83.19" stroke="rgba(27, 53, 105, 1)" stroke-width="1.5"></path><path d="M1568.47 83.19L1561.53 227.33" stroke="rgba(27, 53, 105, 1)" stroke-width="1.5"></path><path d="M1568.47 83.19L1441.15 225.12" stroke="rgba(27, 53, 105, 1)" stroke-width="1.5"></path><path d="M1561.53 227.33L1561.53 227.33" stroke="rgba(27, 53, 105, 1)" stroke-width="1.5"></path><path d="M1561.53 227.33L1574.39 339.85" stroke="rgba(27, 53, 105, 1)" stroke-width="1.5"></path><path d="M1574.39 339.85L1574.39 339.85" stroke="rgba(27, 53, 105, 1)" stroke-width="1.5"></path><path d="M1577.63 513.91L1577.63 513.91" stroke="rgba(27, 53, 105, 1)" stroke-width="1.5"></path><path d="M1577.63 513.91L1575.33 650.89" stroke="rgba(27, 53, 105, 1)" stroke-width="1.5"></path><path d="M1577.63 513.91L1574.39 339.85" stroke="rgba(27, 53, 105, 1)" stroke-width="1.5"></path><path d="M1577.63 513.91L1433.58 683.7" stroke="rgba(27, 53, 105, 1)" stroke-width="1.5"></path><path d="M1577.63 513.91L1297.38 512.68" stroke="rgba(27, 53, 105, 1)" stroke-width="1.5"></path><path d="M1575.33 650.89L1575.33 650.89" stroke="rgba(27, 53, 105, 1)" stroke-width="1.5"></path><path d="M1575.33 650.89L1430.27 532.55" stroke="rgba(27, 53, 105, 1)" stroke-width="1.5"></path><circle r="5" cx="-61.79" cy="398.19" fill="rgba(27, 53, 105, 1)"></circle><circle r="5" cx="-71.82" cy="501.29" fill="rgba(27, 53, 105, 1)"></circle><circle r="5" cx="-41.88" cy="650.11" fill="rgba(27, 53, 105, 1)"></circle><circle r="5" cx="47.25" cy="359.53" fill="rgba(27, 53, 105, 1)"></circle><circle r="5" cx="70.17" cy="520.11" fill="rgba(27, 53, 105, 1)"></circle><circle r="5" cx="56.37" cy="696.33" fill="rgba(27, 53, 105, 1)"></circle><circle r="5" cx="230.91" cy="377.08" fill="rgba(27, 53, 105, 1)"></circle><circle r="5" cx="262.28" cy="496.57" fill="rgba(27, 53, 105, 1)"></circle><circle r="5" cx="260.91" cy="689.26" fill="rgba(27, 53, 105, 1)"></circle><circle r="5" cx="363.32" cy="350.73" fill="rgba(27, 53, 105, 1)"></circle><circle r="5" cx="376.95" cy="511.53" fill="rgba(27, 53, 105, 1)"></circle><circle r="5" cx="381.64" cy="692.98" fill="rgba(27, 53, 105, 1)"></circle><circle r="5" cx="494.21" cy="386.37" fill="rgba(27, 53, 105, 1)"></circle><circle r="5" cx="507.31" cy="526.15" fill="rgba(27, 53, 105, 1)"></circle><circle r="5" cx="509.45" cy="705.99" fill="rgba(27, 53, 105, 1)"></circle><circle r="5" cx="687.5" cy="253.14" fill="rgba(27, 53, 105, 1)"></circle><circle r="5" cx="668.78" cy="401.21" fill="rgba(27, 53, 105, 1)"></circle><circle r="5" cx="699.8" cy="556.92" fill="rgba(27, 53, 105, 1)"></circle><circle r="5" cx="669.62" cy="637.74" fill="rgba(27, 53, 105, 1)"></circle><circle r="5" cx="837.87" cy="87.38" fill="rgba(27, 53, 105, 1)"></circle><circle r="5" cx="800.09" cy="520.42" fill="rgba(27, 53, 105, 1)"></circle><circle r="5" cx="810.88" cy="655.09" fill="rgba(27, 53, 105, 1)"></circle><circle r="5" cx="947.55" cy="-50.24" fill="rgba(27, 53, 105, 1)"></circle><circle r="5" cx="973.62" cy="111.59" fill="rgba(27, 53, 105, 1)"></circle><circle r="5" cx="967.73" cy="190.43" fill="rgba(27, 53, 105, 1)"></circle><circle r="5" cx="967.26" cy="409.94" fill="rgba(27, 53, 105, 1)"></circle><circle r="5" cx="977.17" cy="508.77" fill="rgba(27, 53, 105, 1)"></circle><circle r="5" cx="955.95" cy="671.97" fill="rgba(27, 53, 105, 1)"></circle><circle r="5" cx="1090.25" cy="-65.44" fill="rgba(27, 53, 105, 1)"></circle><circle r="5" cx="1111.61" cy="71.25" fill="rgba(27, 53, 105, 1)"></circle><circle r="5" cx="1146.42" cy="207.34" fill="rgba(27, 53, 105, 1)"></circle><circle r="5" cx="1116.73" cy="369.64" fill="rgba(27, 53, 105, 1)"></circle><circle r="5" cx="1131.82" cy="509.75" fill="rgba(27, 53, 105, 1)"></circle><circle r="5" cx="1153.03" cy="641.04" fill="rgba(27, 53, 105, 1)"></circle><circle r="5" cx="1305.08" cy="91.52" fill="rgba(27, 53, 105, 1)"></circle><circle r="5" cx="1246.83" cy="190.92" fill="rgba(27, 53, 105, 1)"></circle><circle r="5" cx="1297.38" cy="512.68" fill="rgba(27, 53, 105, 1)"></circle><circle r="5" cx="1285.26" cy="649.09" fill="rgba(27, 53, 105, 1)"></circle><circle r="5" cx="1450.78" cy="-68.61" fill="rgba(27, 53, 105, 1)"></circle><circle r="5" cx="1461.4" cy="92.02" fill="rgba(27, 53, 105, 1)"></circle><circle r="5" cx="1441.15" cy="225.12" fill="rgba(27, 53, 105, 1)"></circle><circle r="5" cx="1455.11" cy="389.32" fill="rgba(27, 53, 105, 1)"></circle><circle r="5" cx="1430.27" cy="532.55" fill="rgba(27, 53, 105, 1)"></circle><circle r="5" cx="1433.58" cy="683.7" fill="rgba(27, 53, 105, 1)"></circle><circle r="5" cx="1538.21" cy="-108.55" fill="rgba(27, 53, 105, 1)"></circle><circle r="5" cx="1568.47" cy="83.19" fill="rgba(27, 53, 105, 1)"></circle><circle r="5" cx="1561.53" cy="227.33" fill="rgba(27, 53, 105, 1)"></circle><circle r="5" cx="1574.39" cy="339.85" fill="rgba(27, 53, 105, 1)"></circle><circle r="5" cx="1577.63" cy="513.91" fill="rgba(27, 53, 105, 1)"></circle><circle r="5" cx="1575.33" cy="650.89" fill="rgba(27, 53, 105, 1)"></circle><path d="M246.69 528L246.69 528" stroke="hsl(228.39999999999998, 79%, 71.6%)" stroke-width="1.5"></path><path d="M246.69 528L254.78 655.42" stroke="hsl(228.39999999999998, 79%, 71.6%)" stroke-width="1.5"></path><path d="M246.69 528L397.6 511.31" stroke="hsl(228.39999999999998, 79%, 71.6%)" stroke-width="1.5"></path><path d="M246.69 528L346.43 652.09" stroke="hsl(228.39999999999998, 79%, 71.6%)" stroke-width="1.5"></path><path d="M346.43 652.09L346.43 652.09" stroke="hsl(228.39999999999998, 79%, 71.6%)" stroke-width="1.5"></path><path d="M346.43 652.09L254.78 655.42" stroke="hsl(228.39999999999998, 79%, 71.6%)" stroke-width="1.5"></path><path d="M346.43 652.09L397.6 511.31" stroke="hsl(228.39999999999998, 79%, 71.6%)" stroke-width="1.5"></path><path d="M996.15 557.15L996.15 557.15" stroke="hsl(228.39999999999998, 79%, 71.6%)" stroke-width="1.5"></path><path d="M996.15 557.15L961.26 667.23" stroke="hsl(228.39999999999998, 79%, 71.6%)" stroke-width="1.5"></path><path d="M996.15 557.15L1106.14 489.68" stroke="hsl(228.39999999999998, 79%, 71.6%)" stroke-width="1.5"></path><path d="M996.15 557.15L825.17 534.33" stroke="hsl(228.39999999999998, 79%, 71.6%)" stroke-width="1.5"></path><path d="M996.15 557.15L1141.69 691.25" stroke="hsl(228.39999999999998, 79%, 71.6%)" stroke-width="1.5"></path><path d="M1253.55 649.06L1253.55 649.06" stroke="hsl(228.39999999999998, 79%, 71.6%)" stroke-width="1.5"></path><path d="M1253.55 649.06L1311.19 548.62" stroke="hsl(228.39999999999998, 79%, 71.6%)" stroke-width="1.5"></path><path d="M1253.55 649.06L1141.69 691.25" stroke="hsl(228.39999999999998, 79%, 71.6%)" stroke-width="1.5"></path><path d="M1253.55 649.06L1440.2 692.66" stroke="hsl(228.39999999999998, 79%, 71.6%)" stroke-width="1.5"></path><path d="M1253.55 649.06L1106.14 489.68" stroke="hsl(228.39999999999998, 79%, 71.6%)" stroke-width="1.5"></path><path d="M1253.55 649.06L1451.11 511.71" stroke="hsl(228.39999999999998, 79%, 71.6%)" stroke-width="1.5"></path><path d="M1451.11 511.71L1451.11 511.71" stroke="hsl(228.39999999999998, 79%, 71.6%)" stroke-width="1.5"></path><path d="M1451.11 511.71L1451.73 395.78" stroke="hsl(228.39999999999998, 79%, 71.6%)" stroke-width="1.5"></path><path d="M1440.2 692.66L1440.2 692.66" stroke="hsl(228.39999999999998, 79%, 71.6%)" stroke-width="1.5"></path><path d="M1440.2 692.66L1578.94 683.73" stroke="hsl(228.39999999999998, 79%, 71.6%)" stroke-width="1.5"></path><path d="M1440.2 692.66L1451.11 511.71" stroke="hsl(228.39999999999998, 79%, 71.6%)" stroke-width="1.5"></path><path d="M1440.2 692.66L1311.19 548.62" stroke="hsl(228.39999999999998, 79%, 71.6%)" stroke-width="1.5"></path><path d="M1562.12 202.39L1562.12 202.39" stroke="hsl(228.39999999999998, 79%, 71.6%)" stroke-width="1.5"></path><path d="M1562.12 202.39L1544 93.64" stroke="hsl(228.39999999999998, 79%, 71.6%)" stroke-width="1.5"></path><path d="M1562.12 202.39L1445.82 236.34" stroke="hsl(228.39999999999998, 79%, 71.6%)" stroke-width="1.5"></path><path d="M1562.12 202.39L1590.39 396.53" stroke="hsl(228.39999999999998, 79%, 71.6%)" stroke-width="1.5"></path><path d="M1562.12 202.39L1408.82 75.51" stroke="hsl(228.39999999999998, 79%, 71.6%)" stroke-width="1.5"></path><path d="M1562.12 202.39L1451.73 395.78" stroke="hsl(228.39999999999998, 79%, 71.6%)" stroke-width="1.5"></path><path d="M1562.12 202.39L1585.98 -47.06" stroke="hsl(228.39999999999998, 79%, 71.6%)" stroke-width="1.5"></path><path d="M1590.39 396.53L1590.39 396.53" stroke="hsl(228.39999999999998, 79%, 71.6%)" stroke-width="1.5"></path><path d="M1590.39 396.53L1451.73 395.78" stroke="hsl(228.39999999999998, 79%, 71.6%)" stroke-width="1.5"></path><path d="M1590.39 396.53L1596.82 543.81" stroke="hsl(228.39999999999998, 79%, 71.6%)" stroke-width="1.5"></path><path d="M1590.39 396.53L1451.11 511.71" stroke="hsl(228.39999999999998, 79%, 71.6%)" stroke-width="1.5"></path><path d="M1590.39 396.53L1445.82 236.34" stroke="hsl(228.39999999999998, 79%, 71.6%)" stroke-width="1.5"></path><path d="M1596.82 543.81L1596.82 543.81" stroke="hsl(228.39999999999998, 79%, 71.6%)" stroke-width="1.5"></path><path d="M1596.82 543.81L1578.94 683.73" stroke="hsl(228.39999999999998, 79%, 71.6%)" stroke-width="1.5"></path><path d="M-92.7 526.17L-92.7 526.17" stroke="hsl(228.39999999999998, 79%, 71.6%)" stroke-width="1.5"></path><path d="M-92.7 526.17L65.17 505.41" stroke="hsl(228.39999999999998, 79%, 71.6%)" stroke-width="1.5"></path><path d="M-92.7 526.17L-106.29 687.88" stroke="hsl(228.39999999999998, 79%, 71.6%)" stroke-width="1.5"></path><path d="M-92.7 526.17L246.69 528" stroke="hsl(228.39999999999998, 79%, 71.6%)" stroke-width="1.5"></path><path d="M-92.7 526.17L254.78 655.42" stroke="hsl(228.39999999999998, 79%, 71.6%)" stroke-width="1.5"></path><path d="M-92.7 526.17L346.43 652.09" stroke="hsl(228.39999999999998, 79%, 71.6%)" stroke-width="1.5"></path><path d="M-106.29 687.88L-106.29 687.88" stroke="hsl(228.39999999999998, 79%, 71.6%)" stroke-width="1.5"></path><path d="M-106.29 687.88L65.17 505.41" stroke="hsl(228.39999999999998, 79%, 71.6%)" stroke-width="1.5"></path><path d="M-106.29 687.88L254.78 655.42" stroke="hsl(228.39999999999998, 79%, 71.6%)" stroke-width="1.5"></path><path d="M-106.29 687.88L246.69 528" stroke="hsl(228.39999999999998, 79%, 71.6%)" stroke-width="1.5"></path><path d="M-106.29 687.88L346.43 652.09" stroke="hsl(228.39999999999998, 79%, 71.6%)" stroke-width="1.5"></path><path d="M65.17 505.41L65.17 505.41" stroke="hsl(228.39999999999998, 79%, 71.6%)" stroke-width="1.5"></path><path d="M65.17 505.41L246.69 528" stroke="hsl(228.39999999999998, 79%, 71.6%)" stroke-width="1.5"></path><path d="M65.17 505.41L254.78 655.42" stroke="hsl(228.39999999999998, 79%, 71.6%)" stroke-width="1.5"></path><path d="M254.78 655.42L254.78 655.42" stroke="hsl(228.39999999999998, 79%, 71.6%)" stroke-width="1.5"></path><path d="M254.78 655.42L397.6 511.31" stroke="hsl(228.39999999999998, 79%, 71.6%)" stroke-width="1.5"></path><path d="M397.6 511.31L397.6 511.31" stroke="hsl(228.39999999999998, 79%, 71.6%)" stroke-width="1.5"></path><path d="M654.99 376.67L654.99 376.67" stroke="hsl(228.39999999999998, 79%, 71.6%)" stroke-width="1.5"></path><path d="M654.99 376.67L787.65 405.67" stroke="hsl(228.39999999999998, 79%, 71.6%)" stroke-width="1.5"></path><path d="M654.99 376.67L650.56 525.28" stroke="hsl(228.39999999999998, 79%, 71.6%)" stroke-width="1.5"></path><path d="M654.99 376.67L825.17 534.33" stroke="hsl(228.39999999999998, 79%, 71.6%)" stroke-width="1.5"></path><path d="M650.56 525.28L650.56 525.28" stroke="hsl(228.39999999999998, 79%, 71.6%)" stroke-width="1.5"></path><path d="M650.56 525.28L663.65 685.02" stroke="hsl(228.39999999999998, 79%, 71.6%)" stroke-width="1.5"></path><path d="M663.65 685.02L663.65 685.02" stroke="hsl(228.39999999999998, 79%, 71.6%)" stroke-width="1.5"></path><path d="M663.65 685.02L789.35 708.18" stroke="hsl(228.39999999999998, 79%, 71.6%)" stroke-width="1.5"></path><path d="M663.65 685.02L825.17 534.33" stroke="hsl(228.39999999999998, 79%, 71.6%)" stroke-width="1.5"></path><path d="M787.65 405.67L787.65 405.67" stroke="hsl(228.39999999999998, 79%, 71.6%)" stroke-width="1.5"></path><path d="M787.65 405.67L825.17 534.33" stroke="hsl(228.39999999999998, 79%, 71.6%)" stroke-width="1.5"></path><path d="M787.65 405.67L950.58 358.06" stroke="hsl(228.39999999999998, 79%, 71.6%)" stroke-width="1.5"></path><path d="M787.65 405.67L650.56 525.28" stroke="hsl(228.39999999999998, 79%, 71.6%)" stroke-width="1.5"></path><path d="M787.65 405.67L964.23 255.57" stroke="hsl(228.39999999999998, 79%, 71.6%)" stroke-width="1.5"></path><path d="M787.65 405.67L996.15 557.15" stroke="hsl(228.39999999999998, 79%, 71.6%)" stroke-width="1.5"></path><path d="M825.17 534.33L825.17 534.33" stroke="hsl(228.39999999999998, 79%, 71.6%)" stroke-width="1.5"></path><path d="M825.17 534.33L650.56 525.28" stroke="hsl(228.39999999999998, 79%, 71.6%)" stroke-width="1.5"></path><path d="M825.17 534.33L789.35 708.18" stroke="hsl(228.39999999999998, 79%, 71.6%)" stroke-width="1.5"></path><path d="M825.17 534.33L961.26 667.23" stroke="hsl(228.39999999999998, 79%, 71.6%)" stroke-width="1.5"></path><path d="M825.17 534.33L950.58 358.06" stroke="hsl(228.39999999999998, 79%, 71.6%)" stroke-width="1.5"></path><path d="M789.35 708.18L789.35 708.18" stroke="hsl(228.39999999999998, 79%, 71.6%)" stroke-width="1.5"></path><path d="M789.35 708.18L961.26 667.23" stroke="hsl(228.39999999999998, 79%, 71.6%)" stroke-width="1.5"></path><path d="M964.23 255.57L964.23 255.57" stroke="hsl(228.39999999999998, 79%, 71.6%)" stroke-width="1.5"></path><path d="M964.23 255.57L950.58 358.06" stroke="hsl(228.39999999999998, 79%, 71.6%)" stroke-width="1.5"></path><path d="M964.23 255.57L1124.34 207.33" stroke="hsl(228.39999999999998, 79%, 71.6%)" stroke-width="1.5"></path><path d="M964.23 255.57L1106.14 489.68" stroke="hsl(228.39999999999998, 79%, 71.6%)" stroke-width="1.5"></path><path d="M964.23 255.57L1240.25 228.87" stroke="hsl(228.39999999999998, 79%, 71.6%)" stroke-width="1.5"></path><path d="M950.58 358.06L950.58 358.06" stroke="hsl(228.39999999999998, 79%, 71.6%)" stroke-width="1.5"></path><path d="M961.26 667.23L961.26 667.23" stroke="hsl(228.39999999999998, 79%, 71.6%)" stroke-width="1.5"></path><path d="M1124.34 207.33L1124.34 207.33" stroke="hsl(228.39999999999998, 79%, 71.6%)" stroke-width="1.5"></path><path d="M1124.34 207.33L1240.25 228.87" stroke="hsl(228.39999999999998, 79%, 71.6%)" stroke-width="1.5"></path><path d="M1124.34 207.33L1243.83 38.23" stroke="hsl(228.39999999999998, 79%, 71.6%)" stroke-width="1.5"></path><path d="M1106.14 489.68L1106.14 489.68" stroke="hsl(228.39999999999998, 79%, 71.6%)" stroke-width="1.5"></path><path d="M1106.14 489.68L1240.27 389.35" stroke="hsl(228.39999999999998, 79%, 71.6%)" stroke-width="1.5"></path><path d="M1106.14 489.68L950.58 358.06" stroke="hsl(228.39999999999998, 79%, 71.6%)" stroke-width="1.5"></path><path d="M1106.14 489.68L1141.69 691.25" stroke="hsl(228.39999999999998, 79%, 71.6%)" stroke-width="1.5"></path><path d="M1106.14 489.68L1311.19 548.62" stroke="hsl(228.39999999999998, 79%, 71.6%)" stroke-width="1.5"></path><path d="M1141.69 691.25L1141.69 691.25" stroke="hsl(228.39999999999998, 79%, 71.6%)" stroke-width="1.5"></path><path d="M1141.69 691.25L961.26 667.23" stroke="hsl(228.39999999999998, 79%, 71.6%)" stroke-width="1.5"></path><path d="M1292.2 -68.92L1292.2 -68.92" stroke="hsl(228.39999999999998, 79%, 71.6%)" stroke-width="1.5"></path><path d="M1292.2 -68.92L1243.83 38.23" stroke="hsl(228.39999999999998, 79%, 71.6%)" stroke-width="1.5"></path><path d="M1292.2 -68.92L1406.21 -109.45" stroke="hsl(228.39999999999998, 79%, 71.6%)" stroke-width="1.5"></path><path d="M1243.83 38.23L1243.83 38.23" stroke="hsl(228.39999999999998, 79%, 71.6%)" stroke-width="1.5"></path><path d="M1243.83 38.23L1408.82 75.51" stroke="hsl(228.39999999999998, 79%, 71.6%)" stroke-width="1.5"></path><path d="M1243.83 38.23L1240.25 228.87" stroke="hsl(228.39999999999998, 79%, 71.6%)" stroke-width="1.5"></path><path d="M1243.83 38.23L1406.21 -109.45" stroke="hsl(228.39999999999998, 79%, 71.6%)" stroke-width="1.5"></path><path d="M1243.83 38.23L1445.82 236.34" stroke="hsl(228.39999999999998, 79%, 71.6%)" stroke-width="1.5"></path><path d="M1240.25 228.87L1240.25 228.87" stroke="hsl(228.39999999999998, 79%, 71.6%)" stroke-width="1.5"></path><path d="M1240.25 228.87L1240.27 389.35" stroke="hsl(228.39999999999998, 79%, 71.6%)" stroke-width="1.5"></path><path d="M1240.27 389.35L1240.27 389.35" stroke="hsl(228.39999999999998, 79%, 71.6%)" stroke-width="1.5"></path><path d="M1240.27 389.35L1311.19 548.62" stroke="hsl(228.39999999999998, 79%, 71.6%)" stroke-width="1.5"></path><path d="M1240.27 389.35L1451.73 395.78" stroke="hsl(228.39999999999998, 79%, 71.6%)" stroke-width="1.5"></path><path d="M1240.27 389.35L1124.34 207.33" stroke="hsl(228.39999999999998, 79%, 71.6%)" stroke-width="1.5"></path><path d="M1240.27 389.35L1451.11 511.71" stroke="hsl(228.39999999999998, 79%, 71.6%)" stroke-width="1.5"></path><path d="M1311.19 548.62L1311.19 548.62" stroke="hsl(228.39999999999998, 79%, 71.6%)" stroke-width="1.5"></path><path d="M1311.19 548.62L1451.11 511.71" stroke="hsl(228.39999999999998, 79%, 71.6%)" stroke-width="1.5"></path><path d="M1406.21 -109.45L1406.21 -109.45" stroke="hsl(228.39999999999998, 79%, 71.6%)" stroke-width="1.5"></path><path d="M1406.21 -109.45L1408.82 75.51" stroke="hsl(228.39999999999998, 79%, 71.6%)" stroke-width="1.5"></path><path d="M1406.21 -109.45L1585.98 -47.06" stroke="hsl(228.39999999999998, 79%, 71.6%)" stroke-width="1.5"></path><path d="M1408.82 75.51L1408.82 75.51" stroke="hsl(228.39999999999998, 79%, 71.6%)" stroke-width="1.5"></path><path d="M1408.82 75.51L1544 93.64" stroke="hsl(228.39999999999998, 79%, 71.6%)" stroke-width="1.5"></path><path d="M1408.82 75.51L1445.82 236.34" stroke="hsl(228.39999999999998, 79%, 71.6%)" stroke-width="1.5"></path><path d="M1445.82 236.34L1445.82 236.34" stroke="hsl(228.39999999999998, 79%, 71.6%)" stroke-width="1.5"></path><path d="M1445.82 236.34L1451.73 395.78" stroke="hsl(228.39999999999998, 79%, 71.6%)" stroke-width="1.5"></path><path d="M1451.73 395.78L1451.73 395.78" stroke="hsl(228.39999999999998, 79%, 71.6%)" stroke-width="1.5"></path><path d="M1451.73 395.78L1596.82 543.81" stroke="hsl(228.39999999999998, 79%, 71.6%)" stroke-width="1.5"></path><path d="M1451.73 395.78L1311.19 548.62" stroke="hsl(228.39999999999998, 79%, 71.6%)" stroke-width="1.5"></path><path d="M1585.98 -47.06L1585.98 -47.06" stroke="hsl(228.39999999999998, 79%, 71.6%)" stroke-width="1.5"></path><path d="M1585.98 -47.06L1544 93.64" stroke="hsl(228.39999999999998, 79%, 71.6%)" stroke-width="1.5"></path><path d="M1585.98 -47.06L1408.82 75.51" stroke="hsl(228.39999999999998, 79%, 71.6%)" stroke-width="1.5"></path><path d="M1544 93.64L1544 93.64" stroke="hsl(228.39999999999998, 79%, 71.6%)" stroke-width="1.5"></path><path d="M1544 93.64L1445.82 236.34" stroke="hsl(228.39999999999998, 79%, 71.6%)" stroke-width="1.5"></path><path d="M1544 93.64L1406.21 -109.45" stroke="hsl(228.39999999999998, 79%, 71.6%)" stroke-width="1.5"></path><path d="M1578.94 683.73L1578.94 683.73" stroke="hsl(228.39999999999998, 79%, 71.6%)" stroke-width="1.5"></path><circle r="25" cx="246.69" cy="528" fill="url(#SvgjsRadialGradient2279)"></circle><circle r="25" cx="346.43" cy="652.09" fill="url(#SvgjsRadialGradient2279)"></circle><circle r="25" cx="996.15" cy="557.15" fill="url(#SvgjsRadialGradient2279)"></circle><circle r="25" cx="1253.55" cy="649.06" fill="url(#SvgjsRadialGradient2279)"></circle><circle r="25" cx="1451.11" cy="511.71" fill="url(#SvgjsRadialGradient2279)"></circle><circle r="25" cx="1440.2" cy="692.66" fill="url(#SvgjsRadialGradient2279)"></circle><circle r="25" cx="1562.12" cy="202.39" fill="url(#SvgjsRadialGradient2279)"></circle><circle r="25" cx="1590.39" cy="396.53" fill="url(#SvgjsRadialGradient2279)"></circle><circle r="25" cx="1596.82" cy="543.81" fill="url(#SvgjsRadialGradient2279)"></circle><circle r="5" cx="-92.7" cy="526.17" fill="#99aaf3"></circle><circle r="5" cx="-106.29" cy="687.88" fill="#99aaf3"></circle><circle r="5" cx="65.17" cy="505.41" fill="#99aaf3"></circle><circle r="5" cx="254.78" cy="655.42" fill="#99aaf3"></circle><circle r="5" cx="397.6" cy="511.31" fill="#99aaf3"></circle><circle r="5" cx="654.99" cy="376.67" fill="#99aaf3"></circle><circle r="5" cx="650.56" cy="525.28" fill="#99aaf3"></circle><circle r="5" cx="663.65" cy="685.02" fill="#99aaf3"></circle><circle r="5" cx="787.65" cy="405.67" fill="#99aaf3"></circle><circle r="5" cx="825.17" cy="534.33" fill="#99aaf3"></circle><circle r="5" cx="789.35" cy="708.18" fill="#99aaf3"></circle><circle r="5" cx="964.23" cy="255.57" fill="#99aaf3"></circle><circle r="5" cx="950.58" cy="358.06" fill="#99aaf3"></circle><circle r="5" cx="961.26" cy="667.23" fill="#99aaf3"></circle><circle r="5" cx="1124.34" cy="207.33" fill="#99aaf3"></circle><circle r="5" cx="1106.14" cy="489.68" fill="#99aaf3"></circle><circle r="5" cx="1141.69" cy="691.25" fill="#99aaf3"></circle><circle r="5" cx="1292.2" cy="-68.92" fill="#99aaf3"></circle><circle r="5" cx="1243.83" cy="38.23" fill="#99aaf3"></circle><circle r="5" cx="1240.25" cy="228.87" fill="#99aaf3"></circle><circle r="5" cx="1240.27" cy="389.35" fill="#99aaf3"></circle><circle r="5" cx="1311.19" cy="548.62" fill="#99aaf3"></circle><circle r="5" cx="1406.21" cy="-109.45" fill="#99aaf3"></circle><circle r="5" cx="1408.82" cy="75.51" fill="#99aaf3"></circle><circle r="5" cx="1445.82" cy="236.34" fill="#99aaf3"></circle><circle r="5" cx="1451.73" cy="395.78" fill="#99aaf3"></circle><circle r="5" cx="1585.98" cy="-47.06" fill="#99aaf3"></circle><circle r="5" cx="1544" cy="93.64" fill="#99aaf3"></circle><circle r="5" cx="1578.94" cy="683.73" fill="#99aaf3"></circle></g><defs><mask id="SvgjsMask2277"><rect width="1440" height="560" fill="#ffffff"></rect></mask><linearGradient x1="50%" y1="100%" x2="50%" y2="0%" gradientUnits="userSpaceOnUse" id="SvgjsLinearGradient2278"><stop stop-color="rgba(32, 82, 133, 1)" offset="0"></stop><stop stop-color="rgba(0, 130, 158, 0)" offset="0.52"></stop><stop stop-color="rgba(0, 157, 158, 0)" offset="0.6"></stop><stop stop-color="rgba(0, 130, 158, 0)" offset="0.69"></stop><stop stop-color="rgba(0, 130, 158, 0)" offset="1"></stop></linearGradient><radialGradient id="SvgjsRadialGradient2279"><stop stop-color="#ffffff" offset="0.1"></stop><stop stop-color="rgba(50, 85, 231, 1)" offset="0.2"></stop><stop stop-color="rgba(50, 85, 231, 0)" offset="1"></stop></radialGradient></defs></svg>